HIERARCHY
ROOT Hips
{
	OFFSET 0.000000 0.000000 0.000000
	CHANNELS 6 Xposition Yposition Zposition Zrotation Yrotation Xrotation 
	JOINT LHipJoint
	{
		OFFSET 0.000000 0.000000 0.000000
		CHANNELS 3 Zrotation Yrotation Xrotation
		JOINT LeftUpLeg
		{
			OFFSET 1.363060 -1.794630 0.839290
			CHANNELS 3 Zrotation Yrotation Xrotation
			JOINT LeftLeg
			{
				OFFSET 2.448110 -6.726130 0.000000
				CHANNELS 3 Zrotation Yrotation Xrotation
				JOINT LeftFoot
				{
					OFFSET 2.562200 -7.039590 0.000000
					CHANNELS 3 Zrotation Yrotation Xrotation
					JOINT LeftToeBase
					{
						OFFSET 0.157640 -0.433110 2.322550
						CHANNELS 3 Zrotation Yrotation Xrotation
						End Site
						{
							OFFSET 0.000000 0.000000 0.000000
						}
					}
				}
			}
		}
	}
	JOINT RHipJoint
	{
		OFFSET 0.000000 0.000000 0.000000
		CHANNELS 3 Zrotation Yrotation Xrotation
		JOINT RightUpLeg
		{
			OFFSET -1.305520 -1.794630 0.839290
			CHANNELS 3 Zrotation Yrotation Xrotation
			JOINT RightLeg
			{
				OFFSET -2.542530 -6.985550 0.000000
				CHANNELS 3 Zrotation Yrotation Xrotation
				JOINT RightFoot
				{
					OFFSET -2.568260 -7.056230 0.000000
					CHANNELS 3 Zrotation Yrotation Xrotation
					JOINT RightToeBase
					{
						OFFSET -0.164730 -0.452590 2.363150
						CHANNELS 3 Zrotation Yrotation Xrotation
						End Site
						{
							OFFSET 0.000000 0.000000 0.000000
						}
					}
				}
			}
		}
	}
	JOINT LowerBack
	{
		OFFSET 0.000000 0.000000 0.000000
		CHANNELS 3 Zrotation Yrotation Xrotation
		JOINT Spine
		{
			OFFSET 0.028270 2.035590 -0.193380
			CHANNELS 3 Zrotation Yrotation Xrotation
			JOINT Spine1
			{
				OFFSET 0.056720 2.048850 -0.042750
				CHANNELS 3 Zrotation Yrotation Xrotation
				JOINT Neck
				{
					OFFSET 0.000000 0.000000 0.000000
					CHANNELS 3 Zrotation Yrotation Xrotation
					JOINT Neck1
					{
						OFFSET -0.054170 1.746240 0.172020
						CHANNELS 3 Zrotation Yrotation Xrotation
						JOINT Head
						{
							OFFSET 0.104070 1.761360 -0.123970
							CHANNELS 3 Zrotation Yrotation Xrotation
							End Site
							{
								OFFSET 0.000000 0.000000 0.000000
							}
						}
					}
				}
				JOINT LeftShoulder
				{
					OFFSET 0.000000 0.000000 0.000000
					CHANNELS 3 Zrotation Yrotation Xrotation
					JOINT LeftArm
					{
						OFFSET 3.362410 1.200890 -0.311210
						CHANNELS 3 Zrotation Yrotation Xrotation
						JOINT LeftForeArm
						{
							OFFSET 4.983000 -0.000000 -0.000000
							CHANNELS 3 Zrotation Yrotation Xrotation
							JOINT LeftHand
							{
								OFFSET 3.483560 -0.000000 -0.000000
								CHANNELS 3 Zrotation Yrotation Xrotation
								JOINT LeftFingerBase
								{
									OFFSET 0.000000 0.000000 0.000000
									CHANNELS 3 Zrotation Yrotation Xrotation
									JOINT LeftHandIndex1
									{
										OFFSET 0.715260 -0.000000 -0.000000
										CHANNELS 3 Zrotation Yrotation Xrotation
										End Site
										{
											OFFSET 0.000000 0.000000 0.000000
										}
									}
								}
								JOINT LThumb
								{
									OFFSET 0.000000 0.000000 0.000000
									CHANNELS 3 Zrotation Yrotation Xrotation
									End Site
									{
										OFFSET 0.000000 0.000000 0.000000
									}
								}
							}
						}
					}
				}
				JOINT RightShoulder
				{
					OFFSET 0.000000 0.000000 0.000000
					CHANNELS 3 Zrotation Yrotation Xrotation
					JOINT RightArm
					{
						OFFSET -3.136600 1.374050 -0.404650
						CHANNELS 3 Zrotation Yrotation Xrotation
						JOINT RightForeArm
						{
							OFFSET -5.241900 -0.000000 -0.000000
							CHANNELS 3 Zrotation Yrotation Xrotation
							JOINT RightHand
							{
								OFFSET -3.444170 -0.000000 -0.000000
								CHANNELS 3 Zrotation Yrotation Xrotation
								JOINT RightFingerBase
								{
									OFFSET 0.000000 0.000000 0.000000
									CHANNELS 3 Zrotation Yrotation Xrotation
									JOINT RightHandIndex1
									{
										OFFSET -0.622530 -0.000000 -0.000000
										CHANNELS 3 Zrotation Yrotation Xrotation
										End Site
										{
											OFFSET 0.000000 0.000000 0.000000
										}
									}
								}
								JOINT RThumb
								{
									OFFSET 0.000000 0.000000 0.000000
									CHANNELS 3 Zrotation Yrotation Xrotation
									End Site
									{
										OFFSET 0.000000 0.000000 0.000000
									}
								}
							}
						}
					}
				}
			}
		}
	}
}
MOTION
Frames: 9
Frame Time: 0.008333
-8.760971 16.770427 -0.959046 167.333349 87.328635 -167.261050 -11.840764 2.041235 -3.167862 -2.827152 5.035848 -8.215785 -0.849684 1.758040 28.756797 0.324528 -3.887575 13.391325 -1.420300 0.000000 -86.731700 7.349597 0.118194 1.643308 10.631748 10.369424 -46.856674 2.743953 -0.592385 17.276571 -0.561162 -2.377237 1.000160 -1.112700 -0.000000 -25.596100 4.746324 -2.118412 4.759930 -0.097294 -2.205633 -1.632195 -7.648659 -2.190422 1.126357 11.685832 -0.444645 3.598941 -4.910211 -0.408769 2.643578 0.000000 0.000000 0.000000 -1.553119 -4.642390 0.531759 -50.848432 -31.989767 5.135035 -1.197766 -67.987513 -0.060994 10.660949 -3.370376 -0.359106 -0.218125 0.419009 -0.000000 0.000000 0.000000 0.000000 0.000000 0.000000 0.000000 21.964491 -4.517463 0.540860 56.528212 6.613573 -7.515027 2.701775 30.701173 0.008335 -1.724898 8.191024 -0.129265 0.069117 -0.073033 -0.000000 0.000000 0.000000 0.000000 0.000000 0.000000 0.000000 
-8.551236 16.744050 -0.938595 175.146938 87.386406 -159.584321 -11.966841 2.043346 -3.214815 -2.108847 5.450004 -8.718002 -0.716938 1.903607 30.727922 0.421108 -4.217219 14.961027 -1.705600 0.000000 -85.774400 7.277314 0.078223 1.609232 10.938163 11.185793 -47.297559 2.560795 -0.911793 20.502376 -0.692212 -2.681922 -0.250879 -1.063400 0.000000 -20.959500 5.356872 -2.062934 4.805146 0.011142 -2.175703 -1.648472 -7.669978 -2.167838 1.093644 11.759274 -0.071733 3.686747 -4.950093 -0.410217 2.666227 0.000000 0.000000 0.000000 -1.949989 -4.602507 0.577185 -51.408300 -30.814119 4.983370 -1.258017 -67.360813 -0.060044 10.933063 -3.522121 -0.382001 -0.220668 0.407669 -0.000000 0.000000 0.000000 0.000000 0.000000 0.000000 0.000000 22.180065 -4.267659 0.536436 56.415443 7.026096 -8.300088 2.756004 29.164380 0.008446 -2.072257 8.351210 -0.157478 0.071177 -0.070686 -0.000000 0.000000 0.000000 0.000000 0.000000 0.000000 0.000000 
-8.345393 16.723775 -0.916607 -178.324313 87.394723 -153.200485 -12.105599 2.031313 -3.243752 -1.468089 5.700739 -9.320643 -0.578707 2.049759 32.837649 0.543338 -4.308331 16.534427 -1.928600 0.000000 -83.713300 7.186384 0.066851 1.528040 11.289802 11.830710 -47.554643 2.398729 -1.175551 23.461490 -0.824625 -2.968131 -1.683343 -0.981400 -0.000000 -17.171301 5.867993 -2.025897 4.890140 0.104760 -2.158600 -1.656587 -7.677687 -2.158847 1.057659 11.879850 0.355647 3.792399 -4.975138 -0.410901 2.693012 0.000000 0.000000 0.000000 -2.276588 -4.579086 0.613004 -52.072823 -29.606083 4.817662 -1.322854 -66.531180 -0.059289 11.284236 -3.676976 -0.408609 -0.222947 0.395033 -0.000000 0.000000 0.000000 0.000000 0.000000 0.000000 0.000000 22.379855 -3.969066 0.531926 56.384520 7.539503 -9.223416 2.805610 27.422911 0.008486 -2.432486 8.486973 -0.187093 0.072861 -0.068466 -0.000000 0.000000 0.000000 0.000000 0.000000 0.000000 0.000000 
-8.143534 16.709565 -0.892830 -173.329873 87.348605 -148.355272 -12.246668 1.994280 -3.258580 -0.909838 5.794411 -10.025296 -0.436318 2.190586 35.076100 0.684162 -4.112148 18.005153 -2.039499 0.000000 -80.542600 7.083639 0.066665 1.411904 11.685074 12.301566 -47.605526 2.268398 -1.383763 26.062298 -0.961881 -3.250072 -3.256195 -0.870500 0.000000 -14.208900 6.287779 -2.011686 5.005839 0.186272 -2.158059 -1.656274 -7.670956 -2.166826 1.024329 12.045606 0.807027 3.907268 -4.984695 -0.410798 2.721778 0.000000 0.000000 0.000000 -2.532977 -4.572108 0.639584 -52.828832 -28.394026 4.649051 -1.391899 -65.475470 -0.058677 11.711484 -3.826662 -0.438232 -0.224750 0.381077 0.000000 0.000000 0.000000 0.000000 0.000000 0.000000 0.000000 22.559573 -3.652732 0.525696 56.437137 8.178644 -10.277680 2.850058 25.478671 0.008448 -2.808078 8.589821 -0.217810 0.074273 -0.066463 -0.000000 0.000000 0.000000 0.000000 0.000000 0.000000 0.000000 
-7.945624 16.701138 -0.867070 -169.869794 87.255546 -145.044897 -12.376157 1.931436 -3.262415 -0.440379 5.749347 -10.833532 -0.294141 2.324966 37.422349 0.836456 -3.587493 19.266624 -1.990099 0.000000 -76.383100 6.981761 0.068187 1.271306 12.118805 12.599306 -47.446591 2.176089 -1.540540 28.252069 -1.103434 -3.524616 -4.921872 -0.732200 -0.000000 -11.970001 6.625727 -2.017672 5.141407 0.256480 -2.172092 -1.649114 -7.650505 -2.189550 0.995380 12.253791 1.275433 4.029035 -4.977794 -0.409903 2.752099 0.000000 0.000000 0.000000 -2.726046 -4.578691 0.660242 -53.654915 -27.203776 4.494569 -1.464971 -64.174644 -0.058119 12.204996 -3.961967 -0.469670 -0.225897 0.365805 0.000000 0.000000 0.000000 0.000000 0.000000 0.000000 0.000000 22.712531 -3.320152 0.516674 56.579087 8.921679 -11.485779 2.887457 23.371216 0.008314 -3.186957 8.647237 -0.248227 0.075388 -0.064791 -0.000000 0.000000 0.000000 0.000000 0.000000 0.000000 0.000000 
-7.751349 16.698093 -0.839025 -167.801928 87.129403 -143.121508 -12.483409 1.847969 -3.258046 -0.067100 5.591294 -11.745278 -0.156197 2.454481 39.844177 0.994614 -2.709697 20.230114 -1.745800 -0.000000 -71.491600 6.892235 0.067670 1.114633 12.578879 12.729554 -47.089799 2.123092 -1.651421 30.009682 -1.245097 -3.776945 -6.621154 -0.569800 -0.000000 -10.337400 6.885197 -2.037615 5.287265 0.314551 -2.195372 -1.634993 -7.617506 -2.221165 0.978049 12.497924 1.720677 4.145639 -4.956737 -0.408330 2.780738 0.000000 0.000000 0.000000 -2.859806 -4.596727 0.673994 -54.531071 -26.059301 4.369269 -1.540963 -62.619963 -0.057470 12.744472 -4.075070 -0.501324 -0.226095 0.349230 0.000000 0.000000 0.000000 0.000000 0.000000 0.000000 0.000000 22.843987 -3.008563 0.503918 56.799681 9.792897 -12.805122 2.917516 21.121450 0.008086 -3.581712 8.660622 -0.278845 0.076414 -0.063552 -0.000000 0.000000 0.000000 0.000000 0.000000 0.000000 0.000000 
-7.560257 16.699954 -0.808697 -166.811973 86.983569 -142.266416 -12.566379 1.750424 -3.246508 0.214484 5.353459 -12.759998 -0.024522 2.581503 42.302749 1.155327 -1.485274 20.836707 -1.299800 -0.000000 -66.245000 6.819087 0.062181 0.951048 13.055431 12.710359 -46.553424 2.107097 -1.721113 31.332756 -1.381139 -3.993026 -8.281264 -0.391499 -0.000001 -9.202600 7.076766 -2.063251 5.430725 0.361448 -2.221318 -1.619648 -7.573548 -2.255451 0.962415 12.774368 2.209447 4.274998 -4.917098 -0.405996 2.812819 0.000000 0.000000 0.000000 -2.963248 -4.613587 0.694017 -55.419846 -24.989934 4.307369 -1.621991 -60.795168 -0.056594 13.307041 -4.154618 -0.530792 -0.225427 0.331493 0.000000 0.000000 0.000000 0.000000 0.000000 0.000000 0.000000 22.930057 -2.632939 0.487105 57.120656 10.638224 -14.341837 2.933769 18.877140 0.007696 -3.940382 8.598481 -0.304063 0.076910 -0.062829 -0.000000 0.000000 0.000000 0.000000 0.000000 0.000000 0.000000 
-7.371849 16.706292 -0.775912 -166.760578 86.831483 -142.333059 -12.620728 1.644793 -3.229093 0.394886 5.056489 -13.869371 0.100969 2.706147 44.750401 1.317463 0.060905 21.060063 -0.669000 -0.000000 -61.027500 6.769443 0.052637 0.786119 13.523433 12.554058 -45.872159 2.122114 -1.756462 32.249177 -1.502801 -4.148492 -9.832060 -0.207900 0.000000 -8.467600 7.194221 -2.087669 5.565194 0.395073 -2.243481 -1.600473 -7.519882 -2.285114 0.962305 13.071509 2.651605 4.391128 -4.866420 -0.403215 2.841075 0.000000 0.000000 0.000000 -3.033588 -4.633652 0.712809 -56.309765 -24.005641 4.315298 -1.705845 -58.715479 -0.055304 13.853433 -4.194839 -0.555072 -0.223475 0.312648 0.000000 0.000000 0.000000 0.000000 0.000000 0.000000 0.000000 22.995011 -2.287507 0.465618 57.505024 11.553365 -15.915395 2.939015 16.633873 0.007192 -4.318916 8.484569 -0.328383 0.077430 -0.062576 -0.000000 0.000000 0.000000 0.000000 0.000000 0.000000 0.000000 
-7.185586 16.716802 -0.740816 -167.411731 86.683928 -143.078485 -12.648150 1.534853 -3.205831 0.477896 4.722928 -15.066013 0.220810 2.827565 47.141396 1.481050 1.871164 20.899888 0.101600 -0.000000 -56.173900 6.743981 0.038530 0.626837 13.965908 12.286079 -45.082249 2.161172 -1.763043 32.796512 -1.602212 -4.228138 -11.206272 -0.033300 -0.000000 -8.034300 7.243309 -2.103545 5.681848 0.415940 -2.255632 -1.580586 -7.458204 -2.303996 0.973934 13.380968 3.063610 4.498458 -4.805314 -0.400084 2.866742 0.000000 0.000000 0.000000 -3.091061 -4.652300 0.736451 -57.175508 -23.118685 4.413992 -1.793719 -56.389829 -0.053470 14.344971 -4.186918 -0.571163 -0.220222 0.292898 0.000000 0.000000 0.000000 0.000000 0.000000 0.000000 0.000000 23.032852 -1.946322 0.439426 57.953786 12.462207 -17.483217 2.931247 14.507556 0.006557 -4.702825 8.309083 -0.349802 0.077863 -0.062694 -0.000000 0.000000 0.000000 0.000000 0.000000 0.000000 0.000000 
